<mxfile host="app.diagrams.net" modified="2025-09-17T21:18:06.000Z" agent="5.0 (Windows NT 10.0; Win64; x64) AppleWebKit/537.36 (KHTML, like Gecko) Chrome/123.0.0.0 Safari/537.36" etag="r0QWv1wXzYlE3i4jK5pD" version="24.4.15" type="device">
  <diagram id="D2uB-2D5g_c7aB4c8k-p" name="Page-1">
    <mxGraphModel dx="1434" dy="795" grid="1" gridSize="10" guides="1" tooltips="1" connect="1" arrows="1" fold="1" page="1" pageScale="1" pageWidth="850" pageHeight="1100" math="0" shadow="0">
      <root>
        <mxCell id="0" />
        <mxCell id="1" parent="0" />
        <mxCell id="2" value="&lt;b&gt;&lt;font style=&quot;font-size: 14px;&quot;&gt;Usuario (Abstrata)&lt;/font&gt;&lt;/b&gt;&lt;br&gt;&lt;hr&gt;&lt;br&gt;+ nome: String&lt;br&gt;+ matricula: String&lt;br&gt;+ cpf: String&lt;br&gt;&lt;br&gt;&lt;hr&gt;&lt;br&gt;+ cadastrar(): void&lt;br&gt;+ obterDados(): void" style="html=1;whiteSpace=wrap;strokeWidth=2;fillColor=#dae8fc;strokeColor=#6c8ebf;" parent="1" vertex="1">
          <mxGeometry x="250" y="50" width="150" height="110" as="geometry" />
        </mxCell>
        <mxCell id="3" value="&lt;b&gt;&lt;font style=&quot;font-size: 14px;&quot;&gt;Aluno&lt;/font&gt;&lt;/b&gt;&lt;br&gt;&lt;hr&gt;&lt;br&gt;+ curso: String&lt;br&gt;+ semestre: int&lt;br&gt;&lt;br&gt;&lt;hr&gt;&lt;br&gt;+ solicitarEmprestimo(): void" style="html=1;whiteSpace=wrap;strokeWidth=2;fillColor=#d5e8d4;strokeColor=#82b366;" parent="1" vertex="1">
          <mxGeometry x="150" y="250" width="150" height="90" as="geometry" />
        </mxCell>
        <mxCell id="4" value="&lt;b&gt;&lt;font style=&quot;font-size: 14px;&quot;&gt;Funcionario&lt;/font&gt;&lt;/b&gt;&lt;br&gt;&lt;hr&gt;&lt;br&gt;+ cargo: String&lt;br&gt;+ setor: String&lt;br&gt;&lt;br&gt;&lt;hr&gt;&lt;br&gt;+ registrarEmprestimo(): void&lt;br&gt;+ registrarDevolucao(): void" style="html=1;whiteSpace=wrap;strokeWidth=2;fillColor=#fff2cc;strokeColor=#d6b656;" parent="1" vertex="1">
          <mxGeometry x="350" y="250" width="150" height="110" as="geometry" />
        </mxCell>
        <mxCell id="5" value="&lt;b&gt;&lt;font style=&quot;font-size: 14px;&quot;&gt;Biblioteca&lt;/font&gt;&lt;/b&gt;&lt;br&gt;&lt;hr&gt;&lt;br&gt;+ nome: String&lt;br&gt;+ endereco: String&lt;br&gt;&lt;br&gt;&lt;hr&gt;&lt;br&gt;+ abrir(): void&lt;br&gt;+ fechar(): void" style="html=1;whiteSpace=wrap;strokeWidth=2;fillColor=#f8cecc;strokeColor=#b85450;" parent="1" vertex="1">
          <mxGeometry x="650" y="50" width="150" height="110" as="geometry" />
        </mxCell>
        <mxCell id="6" value="&lt;b&gt;&lt;font style=&quot;font-size: 14px;&quot;&gt;Catalogo&lt;/font&gt;&lt;/b&gt;&lt;br&gt;&lt;hr&gt;&lt;br&gt;+ id: int&lt;br&gt;+ dataAtualizacao: Date&lt;br&gt;&lt;br&gt;&lt;hr&gt;&lt;br&gt;+ buscarLivro(): void&lt;br&gt;+ adicionarLivro(): void" style="html=1;whiteSpace=wrap;strokeWidth=2;fillColor=#cce5ff;strokeColor=#4091e6;" parent="1" vertex="1">
          <mxGeometry x="650" y="250" width="150" height="110" as="geometry" />
        </mxCell>
        <mxCell id="7" value="&lt;b&gt;&lt;font style=&quot;font-size: 14px;&quot;&gt;Livro&lt;/font&gt;&lt;/b&gt;&lt;br&gt;&lt;hr&gt;&lt;br&gt;+ titulo: String&lt;br&gt;+ autor: String&lt;br&gt;+ ISBN: String&lt;br&gt;&lt;br&gt;&lt;hr&gt;&lt;br&gt;+ obterInfo(): void" style="html=1;whiteSpace=wrap;strokeWidth=2;fillColor=#d4e8d4;strokeColor=#82b366;" parent="1" vertex="1">
          <mxGeometry x="650" y="450" width="150" height="90" as="geometry" />
        </mxCell>
        <mxCell id="8" value="&lt;b&gt;&lt;font style=&quot;font-size: 14px;&quot;&gt;Exemplar&lt;/font&gt;&lt;/b&gt;&lt;br&gt;&lt;hr&gt;&lt;br&gt;+ codigoExemplar: String&lt;br&gt;+ disponivel: boolean&lt;br&gt;&lt;br&gt;&lt;hr&gt;&lt;br&gt;+ verificarDisponibilidade(): void" style="html=1;whiteSpace=wrap;strokeWidth=2;fillColor=#e1d5e7;strokeColor=#9673a6;" parent="1" vertex="1">
          <mxGeometry x="650" y="650" width="150" height="90" as="geometry" />
        </mxCell>
        <mxCell id="9" value="&lt;b&gt;&lt;font style=&quot;font-size: 14px;&quot;&gt;Emprestimo (Classe Associativa)&lt;/font&gt;&lt;/b&gt;&lt;br&gt;&lt;hr&gt;&lt;br&gt;+ dataEmprestimo: Date&lt;br&gt;+ dataDevolucao: Date&lt;br&gt;+ status: String&lt;br&gt;&lt;br&gt;&lt;hr&gt;&lt;br&gt;+ registrar(): void" style="html=1;whiteSpace=wrap;strokeWidth=2;fillColor=#f8cecc;strokeColor=#b85450;" parent="1" vertex="1">
          <mxGeometry x="250" y="450" width="150" height="110" as="geometry" />
        </mxCell>
        <mxCell id="10" value="&lt;b&gt;&lt;font style=&quot;font-size: 14px;&quot;&gt;Reserva&lt;/font&gt;&lt;/b&gt;&lt;br&gt;&lt;hr&gt;&lt;br&gt;+ dataReserva: Date&lt;br&gt;+ status: String&lt;br&gt;&lt;br&gt;&lt;hr&gt;&lt;br&gt;+ fazerReserva(): void&lt;br&gt;+ cancelarReserva(): void" style="html=1;whiteSpace=wrap;strokeWidth=2;fillColor=#cce5ff;strokeColor=#4091e6;" parent="1" vertex="1">
          <mxGeometry x="50" y="450" width="150" height="110" as="geometry" />
        </mxCell>
        <mxCell id="11" value="&lt;b&gt;&lt;font style=&quot;font-size: 14px;&quot;&gt;Multa&lt;/font&gt;&lt;/b&gt;&lt;br&gt;&lt;hr&gt;&lt;br&gt;+ valor: double&lt;br&gt;+ dataEmissao: Date&lt;br&gt;+ dataPagamento: Date&lt;br&gt;&lt;br&gt;&lt;hr&gt;&lt;br&gt;+ calcularMulta(): void&lt;br&gt;+ registrarPagamento(): void" style="html=1;whiteSpace=wrap;strokeWidth=2;fillColor=#d5e8d4;strokeColor=#82b366;" parent="1" vertex="1">
          <mxGeometry x="250" y="650" width="150" height="110" as="geometry" />
        </mxCell>
        <mxCell id="12" value="&lt;b&gt;&lt;font style=&quot;font-size: 14px;&quot;&gt;HistoricoEmprestimos&lt;/font&gt;&lt;/b&gt;&lt;br&gt;&lt;hr&gt;&lt;br&gt;+ id: int&lt;br&gt;+ dataRegistro: Date&lt;br&gt;&lt;br&gt;&lt;hr&gt;&lt;br&gt;+ adicionarRegistro(): void" style="html=1;whiteSpace=wrap;strokeWidth=2;fillColor=#fff2cc;strokeColor=#d6b656;" parent="1" vertex="1">
          <mxGeometry x="450" y="450" width="150" height="90" as="geometry" />
        </mxCell>
        <mxCell id="13" value="" style="endArrow=block;endFill=0;endSize=16;html=1;rounded=0;edgeStyle=orthogonalEdgeStyle;entryX=0.5;entryY=1;entryDx=0;entryDy=0;" parent="1" source="3" target="2" edge="1">
          <mxGeometry x="0" y="0" relative="1" as="geometry">
            <mxPoint x="225" y="250" as="sourcePoint" />
            <mxPoint x="320" y="160" as="targetPoint" />
          </mxGeometry>
        </mxCell>
        <mxCell id="14" value="" style="endArrow=block;endFill=0;endSize=16;html=1;rounded=0;edgeStyle=orthogonalEdgeStyle;entryX=0.5;entryY=1;entryDx=0;entryDy=0;" parent="1" source="4" target="2" edge="1">
          <mxGeometry x="0" y="0" relative="1" as="geometry">
            <mxPoint x="425" y="250" as="sourcePoint" />
            <mxPoint x="320" y="160" as="targetPoint" />
          </mxGeometry>
        </mxCell>
        <mxCell id="15" value="&lt;b&gt;&lt;font color=&quot;#ff0000&quot;&gt;Herança&lt;/font&gt;&lt;/b&gt;&lt;br&gt;&lt;i&gt;Aluno e Funcionario herdam de Usuario&lt;/i&gt;" style="text;html=1;align=center;verticalAlign=middle;resizable=0;points=[];autosize=1;strokeColor=none;fillColor=none;" parent="1" vertex="1">
          <mxGeometry x="275" y="180" width="220" height="30" as="geometry" />
        </mxCell>
        <mxCell id="16" value="" style="endArrow=open;html=1;rounded=0;endFill=1;endSize=10;edgeStyle=orthogonalEdgeStyle;entryX=0.5;entryY=1;entryDx=0;entryDy=0;" parent="1" source="6" target="5" edge="1">
          <mxGeometry x="0" y="0" relative="1" as="geometry">
            <mxPoint x="725" y="250" as="sourcePoint" />
            <mxPoint x="725" y="160" as="targetPoint" />
          </mxGeometry>
        </mxCell>
        <mxCell id="17" value="&lt;b&gt;&lt;font color=&quot;#ff0000&quot;&gt;Composição&lt;/font&gt;&lt;/b&gt;&lt;br&gt;&lt;i&gt;Biblioteca compõe um Catalogo&lt;/i&gt;" style="text;html=1;align=center;verticalAlign=middle;resizable=0;points=[];autosize=1;strokeColor=none;fillColor=none;" parent="1" vertex="1">
          <mxGeometry x="635" y="180" width="220" height="30" as="geometry" />
        </mxCell>
        <mxCell id="18" value="1" style="edgeLabel;html=1;align=center;verticalAlign=middle;resizable=0;points=[];" parent="1" vertex="1" connectable="0">
          <mxGeometry x="720" y="220" as="geometry" />
        </mxCell>
        <mxCell id="19" value="1" style="edgeLabel;html=1;align=center;verticalAlign=middle;resizable=0;points=[];" parent="1" vertex="1" connectable="0">
          <mxGeometry x="740" y="220" as="geometry" />
        </mxCell>
        <mxCell id="20" value="" style="endArrow=open;html=1;rounded=0;endFill=0;endSize=10;edgeStyle=orthogonalEdgeStyle;entryX=0.5;entryY=1;entryDx=0;entryDy=0;" parent="1" source="7" target="6" edge="1">
          <mxGeometry x="0" y="0" relative="1" as="geometry">
            <mxPoint x="725" y="450" as="sourcePoint" />
            <mxPoint x="725" y="360" as="targetPoint" />
          </mxGeometry>
        </mxCell>
        <mxCell id="21" value="&lt;b&gt;&lt;font color=&quot;#ff0000&quot;&gt;Agregação&lt;/font&gt;&lt;/b&gt;&lt;br&gt;&lt;i&gt;Catalogo agrega Livro&lt;/i&gt;" style="text;html=1;align=center;verticalAlign=middle;resizable=0;points=[];autosize=1;strokeColor=none;fillColor=none;" parent="1" vertex="1">
          <mxGeometry x="670" y="380" width="150" height="30" as="geometry" />
        </mxCell>
        <mxCell id="22" value="1" style="edgeLabel;html=1;align=center;verticalAlign=middle;resizable=0;points=[];" parent="1" vertex="1" connectable="0">
          <mxGeometry x="720" y="420" as="geometry" />
        </mxCell>
        <mxCell id="23" value="1..*" style="edgeLabel;html=1;align=center;verticalAlign=middle;resizable=0;points=[];" parent="1" vertex="1" connectable="0">
          <mxGeometry x="740" y="420" as="geometry" />
        </mxCell>
        <mxCell id="24" value="" style="endArrow=none;html=1;rounded=0;edgeStyle=orthogonalEdgeStyle;entryX=0.5;entryY=1;entryDx=0;entryDy=0;" parent="1" source="9" target="2" edge="1">
          <mxGeometry x="0" y="0" relative="1" as="geometry">
            <mxPoint x="325" y="450" as="sourcePoint" />
            <mxPoint x="320" y="160" as="targetPoint" />
          </mxGeometry>
        </mxCell>
        <mxCell id="25" value="" style="endArrow=none;html=1;rounded=0;edgeStyle=orthogonalEdgeStyle;entryX=0.5;entryY=1;entryDx=0;entryDy=0;" parent="1" source="9" target="8" edge="1">
          <mxGeometry x="0" y="0" relative="1" as="geometry">
            <mxPoint x="325" y="450" as="sourcePoint" />
            <mxPoint x="725" y="740" as="targetPoint" />
          </mxGeometry>
        </mxCell>
        <mxCell id="26" value="&lt;b&gt;&lt;font color=&quot;#ff0000&quot;&gt;Classe Associativa&lt;/font&gt;&lt;/b&gt;&lt
